<?xml version="1.0" encoding="UTF-8" ?>
<!DOCTYPE svg PUBLIC "-//W3C//DTD SVG 1.1//EN" "http://www.w3.org/Graphics/SVG/1.1/DTD/svg11.dtd">
<svg width="492pt" height="693pt" viewBox="0 0 492 693" version="1.1" xmlns="http://www.w3.org/2000/svg">
<g id="#ffffffff">
</g>
<g id="#164c84ff">
<path fill="#164c84" opacity="1.00" d=" M 160.05 25.52 C 165.57 23.84 170.84 26.70 176.09 27.96 C 178.38 28.57 178.89 25.88 179.96 24.56 C 180.02 29.51 180.07 34.47 179.92 39.42 C 178.18 37.46 178.22 34.59 176.60 32.56 C 174.20 29.16 170.28 26.56 165.98 26.99 C 161.34 26.75 157.01 29.92 155.17 34.07 C 152.27 40.07 152.72 47.06 153.59 53.48 C 154.39 59.16 158.60 65.35 164.96 65.00 C 170.63 65.75 175.54 62.13 178.92 57.96 C 178.96 58.68 179.03 60.14 179.06 60.86 C 169.13 70.77 149.28 68.38 143.80 54.87 C 138.17 42.82 147.02 27.36 160.05 25.52 Z" />
<path fill="#164c84" opacity="1.00" d=" M 310.35 28.57 C 310.93 27.23 311.67 25.96 312.48 24.75 C 316.95 34.85 321.25 45.02 325.63 55.16 C 327.51 59.21 328.65 64.37 333.44 65.93 C 326.63 66.03 319.81 66.10 313.00 65.88 C 314.38 64.82 316.14 64.81 317.79 64.65 C 318.46 60.81 316.01 57.53 314.77 54.09 C 310.14 53.95 305.50 54.01 300.87 54.01 C 299.79 57.35 296.89 61.06 299.46 64.43 C 301.07 64.63 302.65 64.96 304.03 65.87 C 299.55 66.10 295.05 66.04 290.56 65.93 C 292.64 64.63 295.10 63.57 296.03 61.10 C 300.91 50.30 305.64 39.44 310.35 28.57 M 301.89 51.94 C 305.85 52.01 309.81 52.00 313.77 52.00 C 311.94 47.45 310.02 42.94 307.96 38.49 C 305.70 42.87 303.83 47.42 301.89 51.94 Z" />
<path fill="#164c84" opacity="1.00" d=" M 198.99 26.00 C 209.99 26.01 221.00 26.00 232.00 26.00 C 231.96 29.82 232.10 33.65 231.92 37.47 C 230.03 35.28 230.37 31.78 227.77 30.11 C 224.23 27.12 219.25 28.23 215.00 28.00 C 215.00 33.71 214.99 39.41 215.01 45.12 C 217.07 44.82 219.68 45.10 220.95 43.06 C 222.88 40.96 222.12 37.65 223.94 35.58 C 224.04 42.53 224.06 49.50 223.93 56.45 C 222.16 54.41 222.90 51.21 221.00 49.18 C 219.79 47.01 217.14 47.12 215.01 46.88 C 215.10 52.45 214.71 58.06 215.37 63.61 C 220.04 64.11 225.58 64.83 229.43 61.49 C 232.20 59.30 233.06 55.70 234.70 52.73 C 234.51 57.19 233.62 61.58 233.06 66.00 C 221.71 66.00 210.35 65.99 199.00 66.00 L 198.99 65.10 C 201.14 64.93 204.95 65.27 204.89 62.12 C 205.09 51.40 205.04 40.66 204.91 29.93 C 204.98 26.78 201.17 27.03 199.00 26.91 L 198.99 26.00 Z" />
<path fill="#164c84" opacity="1.00" d=" M 254.00 26.00 C 261.34 26.01 268.69 26.00 276.03 26.00 L 276.00 26.90 C 273.85 27.08 270.05 26.73 270.11 29.87 C 269.85 39.91 270.07 49.95 270.00 59.99 C 270.14 61.51 269.75 63.64 271.41 64.47 C 272.85 65.08 274.48 64.91 276.01 65.10 L 276.00 66.00 C 268.67 66.00 261.33 66.00 254.00 66.00 L 253.98 65.10 C 256.13 64.93 259.94 65.28 259.89 62.13 C 260.07 51.38 260.08 40.60 259.89 29.85 C 259.92 26.73 256.13 27.07 254.00 26.90 L 254.00 26.00 Z" />
<path fill="#164c84" opacity="1.00" d=" M 188.32 57.42 C 190.65 56.16 193.69 57.94 194.56 60.27 C 195.88 62.64 194.03 65.75 191.65 66.60 C 189.29 67.83 186.27 66.01 185.42 63.68 C 184.15 61.32 185.97 58.27 188.32 57.42 Z" />
<path fill="#164c84" opacity="1.00" d=" M 243.35 57.40 C 245.78 56.14 248.86 58.07 249.66 60.49 C 251.35 64.28 246.13 68.79 242.67 66.28 C 238.91 64.50 239.41 58.63 243.35 57.40 Z" />
<path fill="#164c84" opacity="1.00" d=" M 281.30 57.42 C 285.10 55.48 289.82 60.79 287.28 64.33 C 285.63 67.76 280.39 67.76 278.73 64.35 C 276.97 61.91 278.67 58.38 281.30 57.42 Z" />
<path fill="#164c84" opacity="1.00" d=" M 339.35 57.40 C 343.11 55.52 347.78 60.76 345.31 64.27 C 343.69 67.77 338.36 67.78 336.71 64.31 C 334.97 61.86 336.71 58.33 339.35 57.40 Z" />
<path fill="#164c84" opacity="1.00" d=" M 224.59 107.27 C 231.76 107.47 239.10 106.07 246.14 107.96 C 257.05 111.50 258.43 129.04 248.23 134.27 C 241.17 137.76 233.00 136.12 225.42 136.69 C 226.84 135.40 230.05 135.68 229.80 133.15 C 229.74 125.61 229.58 118.04 229.26 110.50 C 229.18 108.11 226.15 108.31 224.59 107.27 M 236.55 108.68 C 236.62 117.23 236.90 125.78 237.11 134.33 C 240.89 135.44 245.23 133.40 246.27 129.48 C 247.85 123.87 247.73 117.35 244.83 112.17 C 243.23 109.14 239.65 108.58 236.55 108.68 Z" />
<path fill="#164c84" opacity="1.00" d=" M 269.42 107.57 C 275.24 106.16 282.21 107.04 286.39 111.71 C 291.79 117.22 291.53 126.91 286.50 132.56 C 279.95 140.31 265.61 138.94 260.92 129.84 C 256.34 121.83 260.34 110.20 269.42 107.57 M 272.28 109.20 C 269.36 110.71 268.27 114.12 267.59 117.12 C 266.77 122.14 266.18 127.73 268.67 132.40 C 270.50 136.03 276.15 137.03 278.90 133.91 C 281.57 130.92 282.06 126.71 282.38 122.88 C 282.57 119.24 282.62 115.36 280.92 112.03 C 279.42 108.98 275.29 107.54 272.28 109.20 Z" />
<path fill="#164c84" opacity="1.00" d=" M 193.69 110.50 C 199.04 109.59 204.47 109.43 209.83 108.64 C 209.84 108.83 209.85 109.22 209.86 109.42 C 208.62 110.10 205.93 109.93 206.05 111.88 C 206.27 119.30 207.35 126.70 208.11 134.08 C 208.01 137.67 212.47 136.10 214.53 136.27 C 214.40 136.78 214.13 137.79 214.00 138.30 C 209.34 137.96 204.74 139.04 200.10 139.28 C 193.96 139.53 188.10 141.68 181.97 141.90 C 183.24 141.27 184.55 140.70 185.79 139.98 C 185.56 137.48 183.56 135.63 182.22 133.64 C 178.93 134.35 175.61 134.95 172.28 135.47 C 171.90 137.31 171.31 139.16 171.47 141.06 C 171.51 143.60 175.61 141.52 175.79 143.36 C 172.45 144.16 169.04 144.62 165.65 145.13 C 169.50 142.33 169.98 137.41 171.10 133.16 C 172.74 126.24 174.51 119.36 176.16 112.45 C 182.58 120.73 187.71 129.95 194.14 138.23 C 196.38 138.88 199.48 139.18 200.92 136.91 C 200.54 129.20 199.58 121.52 198.80 113.84 C 198.91 110.99 195.66 111.05 193.69 110.50 M 175.25 123.18 C 174.45 126.67 173.64 130.14 172.77 133.61 C 175.52 133.18 178.32 132.93 180.98 132.07 C 179.54 128.84 177.21 126.11 175.25 123.18 Z" />
<path fill="#164c84" opacity="1.00" d=" M 307.57 110.22 C 313.71 111.15 319.85 112.19 325.91 113.52 C 330.25 114.24 334.41 118.35 333.28 123.01 C 332.76 126.77 329.17 128.80 325.72 129.24 C 328.53 134.39 330.19 140.25 334.21 144.66 C 331.14 144.19 328.09 143.61 325.03 143.09 C 322.92 138.77 320.95 134.38 318.81 130.08 C 318.37 128.88 317.36 128.13 316.21 127.69 C 315.66 131.44 314.56 135.15 314.58 138.96 C 315.39 140.41 317.15 140.88 318.40 141.88 C 313.19 140.78 307.60 140.78 302.68 138.71 C 304.35 138.39 307.25 139.02 307.47 136.60 C 308.93 129.43 310.14 122.19 311.26 114.97 C 312.17 112.33 309.12 111.57 307.57 110.22 M 318.63 113.67 C 317.85 117.93 317.12 122.21 316.43 126.49 C 318.87 126.71 321.61 127.37 323.86 126.04 C 326.35 123.97 327.00 120.11 325.80 117.18 C 324.49 114.51 321.13 114.37 318.63 113.67 Z" />
<path fill="#164c84" opacity="1.00" d=" M 148.56 119.72 C 151.84 118.26 155.34 117.35 158.89 116.84 C 157.57 118.30 156.03 119.73 155.78 121.79 C 154.09 131.07 152.92 140.44 151.37 149.74 C 151.15 149.79 150.71 149.89 150.49 149.94 C 144.32 142.61 138.52 134.96 132.32 127.65 C 131.26 126.14 129.42 125.82 127.77 125.35 C 132.56 123.82 137.38 122.38 142.28 121.27 C 141.21 122.52 137.86 123.39 139.57 125.44 C 143.39 130.30 147.20 135.18 151.25 139.86 C 152.00 133.93 153.35 128.05 153.66 122.08 C 153.66 119.33 150.37 120.00 148.56 119.72 Z" />
<path fill="#164c84" opacity="1.00" d=" M 349.46 119.66 C 356.61 118.27 365.38 121.69 368.14 128.85 C 371.47 136.83 366.67 147.07 358.42 149.62 C 350.82 151.73 341.42 147.89 338.74 140.16 C 335.61 131.95 340.64 121.49 349.46 119.66 M 353.50 121.65 C 349.30 123.15 347.63 127.83 346.35 131.70 C 345.31 135.55 344.34 139.74 345.53 143.67 C 346.83 147.99 353.20 149.84 356.22 146.18 C 360.41 141.58 361.77 135.03 362.18 129.00 C 362.61 124.37 358.12 120.00 353.50 121.65 Z" />
<path fill="#164c84" opacity="1.00" d=" M 122.31 126.68 C 123.88 129.79 125.24 133.00 126.21 136.35 C 123.87 134.60 122.02 131.91 118.97 131.34 C 116.10 130.52 111.89 131.75 111.39 135.11 C 111.04 136.85 112.47 138.43 114.04 138.94 C 118.78 140.65 124.24 139.58 128.73 142.14 C 132.83 144.47 134.08 150.49 131.10 154.19 C 128.73 157.95 124.13 159.28 119.91 159.19 C 117.90 158.94 117.13 160.97 116.15 162.29 C 114.81 158.52 113.06 154.89 112.10 150.99 C 115.27 154.18 118.90 158.33 123.96 157.16 C 127.52 157.01 130.52 152.32 127.58 149.56 C 123.17 146.28 117.10 148.18 112.38 145.60 C 108.87 144.05 106.72 139.73 107.97 136.03 C 108.85 132.40 112.39 130.05 115.90 129.41 C 118.35 129.05 122.15 130.42 122.31 126.68 Z" />
<path fill="#164c84" opacity="1.00" d=" M 222.53 126.62 C 224.24 129.68 222.90 133.56 223.29 136.94 C 220.91 137.20 218.54 137.47 216.17 137.72 C 215.58 137.15 215.00 136.57 214.41 136.00 C 219.71 136.31 221.64 130.80 222.53 126.62 Z" />
<path fill="#164c84" opacity="1.00" d=" M 381.70 128.22 C 386.93 130.08 392.17 131.96 397.24 134.24 C 395.51 134.50 393.03 133.31 392.00 135.19 C 388.80 141.52 387.32 148.63 383.83 154.82 C 380.32 160.23 371.52 158.24 368.68 153.15 C 367.44 151.03 367.47 147.33 370.17 146.39 C 372.07 145.52 373.92 147.35 374.55 149.00 C 374.37 150.93 372.75 152.11 371.44 153.30 C 372.54 154.45 374.11 156.46 375.86 155.06 C 377.36 153.53 377.87 151.34 378.71 149.42 C 380.69 143.96 383.03 138.62 384.83 133.09 C 385.86 130.72 382.82 129.80 381.70 128.22 Z" />
<path fill="#164c84" opacity="1.00" d=" M 89.46 141.59 C 98.81 138.96 108.20 147.65 107.81 156.98 C 108.12 165.46 100.06 172.14 92.00 172.35 C 82.41 172.74 74.24 162.23 76.91 153.01 C 78.25 147.01 83.84 143.17 89.46 141.59 M 87.13 144.08 C 83.32 144.99 81.59 149.31 82.58 152.87 C 83.92 158.72 86.90 164.54 91.71 168.28 C 95.32 171.11 101.44 168.80 101.91 164.15 C 102.46 158.95 99.61 154.18 97.08 149.87 C 94.95 146.66 91.39 142.81 87.13 144.08 Z" />
<path fill="#164c84" opacity="1.00" d=" M 391.81 158.78 C 399.37 153.09 406.52 146.87 414.10 141.21 C 413.78 150.49 412.89 159.74 412.53 169.01 C 412.26 171.30 413.13 173.40 414.29 175.34 C 409.75 173.00 404.97 171.03 400.76 168.12 C 402.25 168.37 403.74 168.63 405.24 168.91 C 405.66 166.59 405.91 164.25 406.10 161.90 C 403.04 160.39 400.11 158.58 396.93 157.32 C 394.76 158.09 393.43 160.14 392.29 162.01 C 393.42 163.07 394.44 164.24 395.20 165.60 C 391.96 164.06 388.75 162.44 385.69 160.57 C 387.83 160.42 390.11 160.26 391.81 158.78 M 398.54 155.66 C 400.84 157.37 403.39 158.72 406.04 159.80 C 406.47 156.22 406.50 152.62 406.85 149.04 C 404.11 151.29 401.36 153.52 398.54 155.66 Z" />
<path fill="#164c84" opacity="1.00" d=" M 426.07 162.89 C 426.21 158.43 430.67 154.75 435.07 155.33 C 438.89 155.51 441.81 158.38 443.68 161.48 C 444.42 163.34 446.08 163.06 447.72 162.46 C 445.63 165.32 443.99 168.54 441.42 171.03 C 442.28 167.29 443.29 162.82 440.27 159.72 C 438.38 156.84 432.72 156.78 432.54 160.93 C 433.21 167.23 439.37 172.28 437.80 178.93 C 436.18 184.80 428.34 186.82 423.64 183.30 C 420.08 181.56 419.25 175.63 414.45 176.95 C 416.89 173.90 418.51 170.03 421.75 167.72 C 420.83 171.26 419.58 175.21 421.52 178.66 C 422.89 181.05 425.66 183.59 428.63 182.47 C 430.99 181.96 431.87 179.10 431.16 177.01 C 429.83 172.18 425.94 168.13 426.07 162.89 Z" />
<path fill="#164c84" opacity="1.00" d=" M 49.63 186.11 C 49.19 183.29 48.57 179.82 51.06 177.72 C 53.32 176.44 55.83 178.86 55.74 181.14 C 54.75 182.94 52.53 183.20 50.79 183.92 C 51.20 189.48 56.45 192.52 59.97 196.14 C 61.04 195.73 62.11 195.34 63.18 194.95 C 60.81 198.08 57.94 200.78 55.18 203.55 C 55.57 201.83 55.32 200.11 53.89 198.96 C 50.63 195.70 47.39 192.40 43.87 189.42 C 43.04 189.48 41.38 189.61 40.55 189.67 C 42.38 187.51 44.39 185.51 46.27 183.39 C 47.40 184.28 48.52 185.18 49.63 186.11 Z" />
<path fill="#164c84" opacity="1.00" d=" M 68.19 182.01 C 70.44 180.54 73.66 182.38 73.66 185.02 C 73.85 187.56 70.75 189.78 68.47 188.41 C 65.83 187.44 65.66 183.19 68.19 182.01 Z" />
<path fill="#164c84" opacity="1.00" d=" M 446.59 198.09 C 447.08 188.87 457.36 182.16 466.05 184.92 C 473.28 186.81 477.65 193.86 479.08 200.81 C 479.97 200.90 481.74 201.06 482.63 201.15 C 479.77 203.65 476.68 205.90 473.37 207.75 C 474.61 204.60 476.58 201.42 475.96 197.89 C 475.55 193.15 470.92 188.73 466.00 189.84 C 460.19 190.97 454.98 194.79 451.59 199.57 C 448.55 203.88 451.13 210.03 455.57 212.22 C 457.68 210.44 460.15 209.07 462.04 207.03 C 461.86 205.60 461.46 204.20 461.16 202.79 C 464.44 206.73 467.44 210.93 470.10 215.32 C 469.04 214.66 468.00 213.99 466.99 213.28 C 464.07 214.23 462.03 216.79 459.25 217.88 C 452.49 213.65 446.09 206.56 446.59 198.09 Z" />
<path fill="#164c84" opacity="1.00" d=" M 23.87 198.90 C 31.18 190.89 46.07 195.88 48.42 206.05 C 49.40 210.76 47.66 215.50 45.33 219.53 C 43.23 223.09 41.63 226.96 39.11 230.26 C 39.26 228.38 40.92 225.57 38.35 224.59 C 31.99 220.95 25.54 217.45 19.03 214.09 C 16.86 212.47 15.30 215.21 13.69 216.26 C 16.81 210.35 19.48 204.01 23.87 198.90 M 20.71 206.81 C 28.23 210.58 35.34 215.21 43.04 218.60 C 46.26 216.66 46.34 211.62 43.85 208.98 C 40.04 204.67 34.48 201.76 28.76 201.19 C 25.01 200.80 22.05 203.56 20.71 206.81 Z" />
<path fill="#164c84" opacity="1.00" d=" M 139.19 213.05 C 149.19 207.34 160.03 203.24 169.79 197.08 C 164.17 202.07 159.21 207.75 154.81 213.84 C 150.05 219.85 145.87 226.84 138.91 230.58 C 135.51 232.53 131.52 232.65 127.71 232.73 C 126.46 230.09 125.90 226.99 127.18 224.25 C 129.45 219.04 134.51 215.88 139.19 213.05 Z" />
<path fill="#164c84" opacity="1.00" d=" M 325.21 197.11 C 336.98 204.62 350.63 208.79 361.92 217.10 C 366.75 220.49 370.60 226.92 367.37 232.70 C 360.38 233.33 353.57 230.28 349.05 224.99 C 341.01 215.78 334.69 205.03 325.21 197.11 Z" />
<path fill="#164c84" opacity="1.00" d=" M 257.13 216.05 C 258.37 213.91 259.59 210.08 262.81 211.25 C 269.86 212.87 276.92 214.49 283.92 216.31 C 285.65 216.59 286.65 218.29 286.51 219.96 C 286.72 227.61 286.98 235.27 287.39 242.92 C 287.41 245.31 289.99 246.20 291.67 247.31 C 293.82 248.38 296.29 250.51 298.71 248.82 C 305.26 245.33 311.67 241.56 318.18 238.00 C 319.52 237.08 321.44 236.92 322.52 238.36 C 327.71 243.54 332.84 248.81 337.94 254.08 C 339.22 255.16 339.22 257.06 338.33 258.39 C 334.59 264.93 330.60 271.34 326.88 277.90 C 325.29 280.48 327.58 283.09 328.64 285.37 C 329.63 286.88 330.33 289.18 332.41 289.46 C 340.51 290.46 348.73 290.28 356.83 291.29 C 358.63 291.40 359.29 293.35 359.57 294.85 C 360.93 301.58 362.52 308.27 363.81 315.02 C 364.39 316.62 363.32 318.22 361.85 318.82 C 355.27 322.26 348.54 325.43 341.98 328.91 C 339.16 330.14 339.74 333.58 339.46 336.07 C 339.52 338.44 338.51 341.54 340.85 343.18 C 346.99 348.07 353.53 352.46 359.69 357.34 C 361.95 358.87 360.45 361.74 359.79 363.73 C 357.39 369.76 355.55 376.03 352.95 381.97 C 352.67 382.17 352.11 382.55 351.83 382.75 C 343.19 383.01 334.62 380.61 326.00 380.70 C 322.36 383.59 319.86 387.89 317.61 391.94 C 320.57 399.77 323.62 407.57 326.48 415.44 C 327.42 417.48 325.46 418.99 324.03 420.06 C 319.06 423.76 314.21 427.62 309.22 431.30 C 307.96 432.35 306.10 432.13 304.93 431.07 C 299.16 426.52 293.55 421.76 287.77 417.21 C 285.11 415.00 281.84 417.52 279.11 418.30 C 276.48 419.63 272.44 419.79 271.41 423.02 C 269.61 430.63 268.26 438.34 266.52 445.95 C 266.26 447.58 264.69 448.59 263.12 448.61 C 256.74 449.29 250.32 450.03 243.90 449.97 C 242.40 450.06 241.06 449.00 240.64 447.60 C 238.30 440.82 236.14 433.98 233.87 427.18 C 233.39 425.72 232.67 423.97 230.98 423.65 C 226.65 422.48 222.21 421.80 217.89 420.59 C 214.81 422.17 212.72 424.97 210.31 427.35 C 206.82 430.85 203.45 434.45 199.94 437.93 C 198.96 438.85 197.47 440.14 196.09 439.11 C 190.18 436.02 184.44 432.61 178.64 429.30 C 177.12 428.67 176.82 426.92 177.20 425.48 C 178.86 417.98 181.15 410.61 182.72 403.08 C 183.29 401.17 181.68 399.72 180.53 398.48 C 177.99 395.99 175.68 393.26 173.06 390.86 C 171.71 389.60 169.75 390.15 168.15 390.43 C 161.44 391.94 154.74 393.50 148.03 395.00 C 146.38 395.67 144.65 394.56 144.01 393.04 C 141.25 387.76 138.60 382.42 135.82 377.15 C 135.17 375.68 133.88 373.79 135.51 372.47 C 140.93 366.85 146.96 361.85 152.52 356.37 C 155.12 354.00 153.18 350.22 152.93 347.32 C 152.07 344.34 152.77 339.86 149.18 338.60 C 141.49 335.64 133.69 332.94 125.98 330.02 C 126.22 322.96 127.00 315.94 127.92 308.94 C 128.15 307.26 128.45 304.99 130.47 304.60 C 137.92 303.04 145.44 301.87 152.91 300.46 C 154.22 300.20 155.72 299.74 156.33 298.43 C 157.81 295.46 158.98 292.35 160.23 289.28 C 160.81 287.97 160.90 286.35 159.94 285.19 C 155.30 278.69 150.14 272.55 145.63 265.95 C 145.64 265.49 145.66 264.55 145.67 264.09 C 149.00 259.38 152.88 255.08 156.38 250.50 C 157.84 248.80 159.00 246.73 160.94 245.52 C 162.57 245.16 164.07 246.15 165.56 246.65 C 171.83 249.28 178.08 251.96 184.39 254.50 C 187.30 255.91 189.80 253.32 192.06 251.87 C 194.01 250.32 197.24 249.05 196.73 246.01 C 196.43 238.26 195.28 230.57 195.15 222.82 C 194.93 220.55 197.51 220.06 199.12 219.43 C 204.95 217.53 210.73 215.47 216.55 213.54 C 217.99 213.14 220.00 212.51 221.04 214.02 C 226.05 220.64 230.29 227.86 235.43 234.37 C 238.77 236.21 243.12 235.07 246.78 234.68 C 250.86 228.88 253.63 222.22 257.13 216.05 M 235.53 253.71 C 214.70 256.40 195.30 268.05 182.89 284.96 C 169.33 303.03 164.43 327.15 169.50 349.10 C 173.80 368.91 186.22 386.72 203.11 397.87 C 219.31 408.93 239.84 413.16 259.14 410.06 C 275.76 407.44 291.39 399.13 303.01 386.99 C 316.40 373.16 324.70 354.28 325.05 334.97 C 325.87 319.89 322.07 304.62 314.32 291.66 C 304.37 274.74 287.88 261.71 269.01 256.21 C 258.21 252.94 246.69 252.38 235.53 253.71 Z" />
<path fill="#164c84" opacity="1.00" d=" M 108.19 233.13 C 111.33 225.45 117.45 219.48 123.69 214.25 C 121.51 220.29 120.96 226.71 120.66 233.08 C 120.65 240.22 115.63 246.24 110.04 250.12 C 106.43 245.33 105.85 238.61 108.19 233.13 Z" />
<path fill="#164c84" opacity="1.00" d=" M 371.27 214.24 C 377.35 219.26 383.18 225.04 386.49 232.31 C 389.12 237.93 388.83 245.05 385.01 250.04 C 379.31 246.32 374.37 240.14 374.34 233.03 C 374.02 226.68 373.52 220.25 371.27 214.24 Z" />
<path fill="#164c84" opacity="1.00" d=" M 461.46 221.41 C 463.99 220.47 466.92 223.43 465.80 225.97 C 465.11 228.93 460.66 229.43 459.28 226.75 C 457.98 224.75 459.17 221.94 461.46 221.41 Z" />
<path fill="#164c84" opacity="1.00" d=" M 104.60 234.98 C 104.39 239.17 103.63 243.36 104.05 247.58 C 104.31 252.98 105.63 258.48 104.31 263.83 C 102.82 268.88 99.39 273.03 96.04 276.98 C 92.42 272.57 89.88 266.96 90.63 261.14 C 91.85 251.00 98.33 242.62 104.60 234.98 Z" />
<path fill="#164c84" opacity="1.00" d=" M 390.92 248.10 C 391.42 243.72 390.64 239.36 390.38 234.99 C 396.68 242.59 403.11 250.98 404.36 261.08 C 405.14 266.92 402.60 272.55 398.96 276.97 C 395.60 273.04 392.18 268.89 390.70 263.85 C 389.38 258.67 390.63 253.34 390.92 248.10 Z" />
<path fill="#164c84" opacity="1.00" d=" M 136.00 239.39 C 138.86 239.39 141.48 238.16 144.11 237.19 C 140.38 241.50 136.29 245.76 131.17 248.41 C 126.34 250.90 120.62 249.87 115.81 247.85 C 118.11 244.82 120.98 242.13 124.40 240.41 C 128.00 238.59 132.14 239.60 136.00 239.39 Z" />
<path fill="#164c84" opacity="1.00" d=" M 350.94 237.20 C 355.00 239.16 359.47 239.77 363.94 239.32 C 370.26 238.60 375.68 243.11 379.17 247.90 C 374.33 249.86 368.61 250.90 363.77 248.37 C 358.71 245.71 354.61 241.51 350.94 237.20 Z" />
<path fill="#164c84" opacity="1.00" d=" M 116.95 261.15 C 122.23 260.81 127.46 259.41 131.64 256.06 C 127.35 262.14 123.32 269.10 116.40 272.52 C 111.86 274.79 106.67 274.17 101.91 273.05 C 105.23 267.49 109.95 261.55 116.95 261.15 Z" />
<path fill="#164c84" opacity="1.00" d=" M 363.38 256.11 C 365.53 257.49 367.67 258.98 370.14 259.75 C 374.67 261.29 379.82 260.51 384.06 262.99 C 387.79 265.25 390.49 268.84 392.76 272.49 C 392.71 272.64 392.60 272.96 392.55 273.12 C 387.52 274.56 381.82 274.58 377.23 271.80 C 371.13 268.11 367.38 261.80 363.38 256.11 Z" />
<path fill="#164c84" opacity="1.00" d=" M 82.44 270.08 C 83.98 267.28 85.02 264.08 87.35 261.81 C 87.06 270.45 89.92 278.66 91.97 286.92 C 93.84 294.80 89.71 302.27 85.92 308.87 C 81.73 305.43 78.24 300.87 77.26 295.42 C 75.57 286.68 78.75 277.89 82.44 270.08 Z" />
<path fill="#164c84" opacity="1.00" d=" M 407.67 261.82 C 409.92 263.96 410.89 267.00 412.37 269.66 C 416.00 277.18 419.06 285.52 418.00 294.00 C 417.31 299.98 413.71 305.17 409.08 308.86 C 405.18 302.12 401.04 294.42 403.14 286.38 C 405.29 278.33 407.88 270.26 407.67 261.82 Z" />
<path fill="#164c84" opacity="1.00" d=" M 105.41 287.63 C 111.24 286.34 116.67 283.61 120.82 279.28 C 117.15 286.46 114.36 294.69 107.73 299.78 C 103.15 303.39 97.05 303.94 91.43 303.41 C 94.19 296.90 97.95 289.52 105.41 287.63 Z" />
<path fill="#164c84" opacity="1.00" d=" M 374.14 279.24 C 376.58 281.41 379.01 283.70 382.03 285.05 C 386.15 287.10 391.05 287.32 394.80 290.16 C 399.14 293.43 401.37 298.61 403.59 303.40 C 397.96 303.95 391.85 303.39 387.26 299.77 C 380.61 294.67 377.86 286.41 374.14 279.24 Z" />
<path fill="#164c84" opacity="1.00" d=" M 253.28 286.96 C 258.86 293.69 263.65 301.05 268.82 308.12 C 271.83 313.21 278.94 312.26 283.15 315.73 C 287.24 321.07 290.51 327.00 294.57 332.35 C 299.57 335.27 307.14 333.93 310.30 339.59 C 312.38 342.81 315.19 345.57 316.90 349.03 C 311.14 376.83 286.92 399.43 258.99 404.02 C 239.39 407.59 218.48 402.37 202.75 390.19 C 190.78 381.10 181.86 368.22 177.38 353.89 C 180.14 352.59 182.71 350.90 185.54 349.74 C 189.28 348.84 193.11 348.21 196.94 347.77 C 204.57 349.86 212.18 352.18 219.74 354.59 C 218.31 346.70 213.35 339.77 211.56 332.03 C 213.08 326.99 215.18 322.12 216.59 317.04 C 215.50 317.75 214.42 318.51 213.56 319.51 C 208.48 325.41 203.38 331.31 198.16 337.09 C 200.07 339.06 202.76 340.29 204.11 342.77 C 199.93 341.78 195.48 338.98 191.19 341.11 C 188.58 342.29 185.71 342.85 183.15 344.13 C 180.87 346.35 179.23 349.19 177.99 352.11 C 176.06 351.25 175.99 348.85 175.90 347.06 C 177.56 344.08 179.31 340.54 182.89 339.56 C 187.78 337.05 193.99 336.24 197.31 331.44 C 203.53 323.94 210.01 316.67 216.19 309.15 C 219.59 312.90 222.83 316.80 226.05 320.71 C 228.11 320.06 229.91 318.83 231.09 316.99 C 238.47 306.97 245.99 297.05 253.28 286.96 M 233.88 320.97 C 232.74 322.59 230.77 323.17 229.11 324.03 C 231.57 328.15 235.17 331.44 238.07 335.24 C 242.85 336.63 247.73 337.60 252.53 338.88 C 254.66 339.91 255.73 342.23 257.39 343.82 C 258.79 343.48 259.21 341.90 259.98 340.87 C 262.33 336.60 265.20 332.63 267.19 328.17 C 261.60 323.16 255.92 318.23 250.33 313.22 C 252.03 310.99 253.56 308.64 254.93 306.20 C 258.68 308.47 262.18 311.15 266.11 313.10 C 265.18 309.97 262.79 307.65 260.98 305.04 C 258.36 301.70 256.19 297.99 253.14 295.01 C 246.70 303.65 240.28 312.30 233.88 320.97 Z" />
<path fill="#164c84" opacity="1.00" d=" M 68.37 329.18 C 65.60 317.19 69.20 304.93 73.08 293.61 C 74.44 298.24 75.53 302.98 77.56 307.39 C 79.97 313.33 83.89 318.68 85.20 325.04 C 86.50 332.05 84.06 338.98 81.86 345.54 C 75.27 342.36 70.00 336.40 68.37 329.18 Z" />
<path fill="#164c84" opacity="1.00" d=" M 411.86 318.93 C 416.07 310.86 419.95 302.57 421.92 293.63 C 425.76 304.58 429.13 316.41 426.90 328.07 C 425.50 335.73 420.11 342.21 413.15 345.55 C 410.11 337.12 407.39 327.38 411.86 318.93 Z" />
<path fill="#164c84" opacity="1.00" d=" M 106.65 313.73 C 109.49 311.69 111.44 308.73 113.68 306.10 C 111.14 314.60 109.88 323.99 103.89 330.95 C 99.63 335.93 93.02 337.94 86.70 338.49 C 88.07 332.85 89.41 326.85 93.35 322.39 C 96.91 318.27 102.45 316.98 106.65 313.73 Z" />
<path fill="#164c84" opacity="1.00" d=" M 381.37 306.16 C 383.61 308.74 385.52 311.68 388.33 313.70 C 392.53 316.97 398.09 318.26 401.65 322.38 C 405.60 326.84 406.96 332.85 408.32 338.48 C 401.98 337.95 395.34 335.90 391.09 330.90 C 385.16 323.96 383.85 314.64 381.37 306.16 Z" />
<path fill="#164c84" opacity="1.00" d=" M 64.28 331.13 C 66.99 336.19 69.49 341.39 72.99 345.98 C 77.52 352.41 83.99 357.93 85.80 365.91 C 87.19 372.37 86.92 379.20 85.46 385.63 C 80.89 383.81 76.21 381.87 72.72 378.28 C 66.52 372.24 64.03 363.46 63.36 355.05 C 62.57 347.08 63.27 339.05 64.28 331.13 Z" />
<path fill="#164c84" opacity="1.00" d=" M 422.82 344.85 C 425.96 340.63 428.10 335.80 430.72 331.26 C 432.28 343.38 433.09 356.14 428.94 367.85 C 425.89 376.60 418.21 383.36 409.20 385.42 C 408.37 378.05 407.42 370.29 410.04 363.16 C 412.77 356.09 418.69 351.04 422.82 344.85 Z" />
<path fill="#164c84" opacity="1.00" d=" M 105.74 344.73 C 108.17 341.87 109.59 338.36 111.30 335.07 C 110.33 344.89 111.38 355.45 106.37 364.39 C 102.95 370.84 96.21 374.59 89.43 376.62 C 89.52 370.24 89.72 363.51 92.82 357.76 C 95.85 352.25 101.90 349.54 105.74 344.73 Z" />
<path fill="#164c84" opacity="1.00" d=" M 388.28 363.72 C 384.11 355.17 384.00 345.25 384.29 335.96 C 385.60 338.80 386.83 341.72 388.83 344.16 C 392.66 349.31 399.04 352.05 402.21 357.76 C 405.30 363.52 405.53 370.26 405.54 376.64 C 398.56 374.49 391.58 370.54 388.28 363.72 Z" />
<path fill="#164c84" opacity="1.00" d=" M 115.23 368.87 C 117.70 379.65 121.00 391.05 117.89 402.04 C 115.83 409.56 109.71 414.94 103.40 419.03 C 101.28 412.43 100.01 405.21 101.54 398.34 C 103.14 391.22 109.33 386.57 112.19 380.06 C 113.94 376.57 114.62 372.69 115.23 368.87 Z" />
<path fill="#164c84" opacity="1.00" d=" M 379.62 368.89 C 380.57 372.89 381.15 377.06 383.15 380.73 C 386.10 386.92 391.98 391.50 393.49 398.41 C 394.97 405.24 393.78 412.47 391.57 419.01 C 385.56 415.07 379.69 410.05 377.43 402.98 C 373.72 391.75 377.45 380.02 379.62 368.89 Z" />
<path fill="#164c84" opacity="1.00" d=" M 65.19 387.09 C 64.81 383.72 63.61 380.34 64.24 376.95 C 68.23 382.20 72.82 386.99 77.98 391.10 C 83.72 395.94 90.59 399.69 94.89 406.03 C 99.54 412.98 100.50 421.53 101.55 429.62 C 93.16 429.37 84.59 426.37 78.90 419.99 C 70.70 410.99 67.32 398.80 65.19 387.09 Z" />
<path fill="#164c84" opacity="1.00" d=" M 405.85 399.79 C 414.92 392.88 424.15 385.97 431.09 376.79 C 430.64 384.80 428.96 392.73 426.66 400.40 C 423.79 409.49 419.25 418.69 411.20 424.24 C 406.02 427.87 399.67 429.31 393.45 429.63 C 394.57 418.86 396.70 406.81 405.85 399.79 Z" />
<path fill="#164c84" opacity="1.00" d=" M 127.95 415.07 C 129.09 410.44 128.51 405.66 128.38 400.97 C 133.21 410.97 139.30 420.81 140.47 432.10 C 141.57 441.94 136.80 451.83 129.43 458.17 C 125.97 451.23 121.93 444.07 122.04 436.07 C 121.78 428.55 126.56 422.24 127.95 415.07 Z" />
<path fill="#164c84" opacity="1.00" d=" M 354.55 432.06 C 355.78 420.77 361.77 410.86 366.75 400.91 C 366.43 405.63 365.93 410.45 367.07 415.10 C 368.52 422.24 373.08 428.55 373.09 436.01 C 372.95 444.02 369.12 451.26 365.51 458.20 C 358.23 451.74 353.39 441.94 354.55 432.06 Z" />
<path fill="#164c84" opacity="1.00" d=" M 75.15 424.09 C 81.82 428.97 88.93 433.32 96.59 436.50 C 103.57 439.58 111.26 441.64 117.07 446.83 C 123.96 452.98 127.69 461.73 130.87 470.20 C 124.38 471.56 117.52 471.98 111.17 469.76 C 102.16 466.83 95.04 459.96 89.64 452.40 C 83.52 443.70 78.85 434.03 75.15 424.09 Z" />
<path fill="#164c84" opacity="1.00" d=" M 399.11 436.20 C 406.50 433.06 413.37 428.83 419.83 424.09 C 414.19 438.70 407.08 453.64 394.75 463.80 C 386.36 470.84 374.70 472.87 364.18 470.24 C 367.26 461.74 371.06 453.05 377.89 446.87 C 383.91 441.49 391.91 439.45 399.11 436.20 Z" />
<path fill="#164c84" opacity="1.00" d=" M 150.09 430.06 C 158.77 439.46 168.59 448.57 173.18 460.83 C 176.86 470.85 174.38 482.04 169.17 491.04 C 163.02 484.62 156.49 477.85 154.05 469.06 C 151.72 460.44 155.39 451.63 153.91 442.94 C 153.45 438.44 151.63 434.27 150.09 430.06 Z" />
<path fill="#164c84" opacity="1.00" d=" M 322.07 460.14 C 326.83 448.24 336.34 439.22 344.97 430.09 C 343.30 434.25 341.57 438.46 341.09 442.97 C 339.58 451.92 343.51 461.09 340.71 469.92 C 338.06 478.31 331.79 484.82 325.84 491.03 C 320.47 481.85 318.06 470.30 322.07 460.14 Z" />
<path fill="#164c84" opacity="1.00" d=" M 189.22 467.61 C 187.21 462.25 183.64 457.72 180.07 453.32 C 189.62 458.78 199.48 463.93 207.84 471.17 C 213.88 476.37 218.75 483.21 220.56 491.06 C 222.24 497.87 221.62 504.97 220.36 511.79 C 211.41 507.21 202.21 501.74 196.77 492.99 C 192.11 485.27 192.68 475.79 189.22 467.61 Z" />
<path fill="#164c84" opacity="1.00" d=" M 314.97 453.30 C 311.36 457.72 307.78 462.29 305.76 467.69 C 302.25 476.13 302.91 485.97 297.77 493.78 C 292.23 502.09 283.34 507.31 274.67 511.82 C 272.27 500.74 273.02 488.30 280.03 478.96 C 288.81 467.09 302.53 460.57 314.97 453.30 Z" />
<path fill="#164c84" opacity="1.00" d=" M 100.30 471.07 C 108.61 474.06 117.15 476.54 125.94 477.64 C 135.04 479.02 144.73 478.63 153.12 482.97 C 161.95 487.50 168.20 495.48 174.21 503.13 C 164.11 509.41 151.05 510.73 140.06 506.05 C 123.33 499.13 111.29 484.89 100.30 471.07 Z" />
<path fill="#164c84" opacity="1.00" d=" M 370.15 477.49 C 378.57 476.36 386.73 473.92 394.71 471.07 C 383.86 484.70 372.02 498.71 355.64 505.76 C 344.50 510.76 331.13 509.54 320.81 503.15 C 326.93 495.31 333.36 487.13 342.50 482.66 C 351.10 478.49 360.92 478.99 370.15 477.49 Z" />
<path fill="#164c84" opacity="1.00" d=" M 165.07 512.43 C 174.45 511.41 183.55 508.45 193.00 508.09 C 206.79 507.55 219.03 515.42 229.57 523.44 C 222.65 530.39 213.90 535.95 203.98 537.10 C 188.64 539.02 173.71 532.94 160.50 525.74 C 153.67 521.98 147.17 517.66 140.83 513.14 C 148.91 513.35 157.04 513.56 165.07 512.43 Z" />
<path fill="#164c84" opacity="1.00" d=" M 265.45 523.13 C 274.26 517.07 283.37 510.69 294.07 508.62 C 304.93 506.66 315.58 510.38 326.24 511.91 C 335.45 513.50 344.83 513.44 354.14 513.15 C 341.32 522.30 327.64 530.77 312.39 535.17 C 302.33 538.07 291.21 538.63 281.39 534.53 C 275.30 532.02 269.84 528.03 265.45 523.13 Z" />
<path fill="#164c84" opacity="1.00" d=" M 235.05 525.06 C 239.38 527.18 243.69 529.37 248.02 531.53 C 252.35 529.41 256.65 527.22 260.97 525.08 C 258.29 528.27 254.68 530.47 251.83 533.48 C 270.39 542.02 288.60 551.43 307.86 558.37 C 312.06 559.87 316.38 561.12 320.85 561.42 C 318.54 570.32 316.52 579.29 314.26 588.21 C 313.37 585.38 312.85 582.35 310.92 580.00 C 306.41 574.13 300.07 570.06 293.91 566.14 C 278.34 556.60 262.41 547.53 248.02 536.23 C 232.37 548.72 214.65 558.14 197.87 568.93 C 190.96 573.69 182.96 579.29 181.95 588.36 C 179.47 579.45 177.67 570.36 175.23 561.44 C 183.07 560.78 190.39 557.64 197.62 554.77 C 213.46 548.40 228.69 540.64 244.19 533.51 C 241.45 530.37 237.74 528.25 235.05 525.06 Z" />
<path fill="#164c84" opacity="1.00" d=" M 136.18 614.16 C 143.32 613.26 151.24 615.27 155.97 620.97 C 162.68 628.67 162.46 641.11 155.84 648.80 C 147.18 659.37 127.70 658.13 121.09 645.90 C 115.36 636.64 118.02 623.12 127.36 617.26 C 129.95 615.43 133.09 614.63 136.18 614.16 M 135.52 616.72 C 130.71 619.63 129.34 625.67 129.07 630.91 C 128.98 635.99 128.66 641.24 130.27 646.15 C 131.11 649.23 133.08 652.21 136.03 653.60 C 139.26 654.29 143.35 654.51 145.66 651.67 C 150.63 646.44 149.99 638.64 149.97 631.97 C 150.01 626.36 148.80 619.67 143.50 616.63 C 140.99 615.69 138.01 615.72 135.52 616.72 Z" />
<path fill="#164c84" opacity="1.00" d=" M 166.72 622.03 C 168.81 615.70 176.78 612.47 182.85 614.83 C 185.37 615.63 187.72 617.42 190.50 616.77 C 190.58 615.49 191.06 614.43 191.94 613.61 C 192.03 618.21 192.06 622.82 191.92 627.43 C 189.86 623.84 188.76 619.24 184.58 617.37 C 180.10 614.28 170.20 615.91 172.15 623.06 C 174.67 627.69 180.35 628.84 184.62 631.28 C 189.15 633.29 193.35 636.94 193.88 642.17 C 194.96 650.65 185.74 657.54 177.79 655.66 C 175.43 655.10 173.32 653.86 171.02 653.12 C 168.53 652.13 167.42 654.99 166.01 656.39 C 166.03 651.11 165.90 645.83 166.08 640.56 C 167.91 642.79 167.88 645.96 169.76 648.19 C 172.84 653.09 179.64 655.60 184.98 653.10 C 188.43 651.36 189.12 646.28 186.28 643.70 C 181.49 639.46 174.70 638.37 170.02 633.95 C 166.77 631.08 164.98 626.16 166.72 622.03 Z" />
<path fill="#164c84" opacity="1.00" d=" M 232.14 613.76 C 238.40 625.89 242.89 638.90 248.84 651.19 C 249.58 653.24 251.80 653.82 253.45 654.93 C 246.80 655.10 240.16 654.94 233.51 655.00 L 233.47 654.08 C 234.90 653.95 236.34 653.82 237.79 653.70 C 238.48 649.85 236.01 646.55 234.79 643.10 C 230.15 642.94 225.51 643.01 220.87 643.01 C 219.79 646.39 216.71 650.28 219.67 653.55 C 221.13 653.82 222.85 653.70 223.95 654.91 C 219.48 655.06 215.00 655.04 210.54 654.94 C 212.58 653.65 215.05 652.62 215.97 650.20 C 221.53 638.13 226.61 625.84 232.14 613.76 M 221.90 640.95 C 225.87 641.00 229.85 640.99 233.83 641.00 C 231.85 636.45 230.03 631.84 227.89 627.36 C 225.83 631.87 223.79 636.38 221.90 640.95 Z" />
<path fill="#164c84" opacity="1.00" d=" M 383.74 621.97 C 385.87 615.64 393.88 612.46 399.95 614.86 C 402.42 615.67 404.74 617.40 407.48 616.78 C 407.59 615.51 408.08 614.45 408.94 613.59 C 409.03 618.19 409.06 622.80 408.93 627.41 C 407.52 625.80 407.29 623.58 406.19 621.81 C 404.09 618.31 400.14 615.76 395.98 615.99 C 392.96 615.70 388.93 617.38 388.99 620.91 C 388.56 625.06 393.02 627.06 396.11 628.64 C 401.72 631.39 409.10 633.83 410.57 640.77 C 413.14 649.88 402.65 658.16 394.13 655.48 C 391.35 654.87 388.92 652.64 385.97 653.08 C 384.82 654.03 383.97 655.27 383.01 656.41 C 383.03 651.12 382.90 645.83 383.08 640.56 C 384.81 642.57 384.78 645.46 386.36 647.59 C 389.33 652.84 396.40 655.74 402.00 653.09 C 405.42 651.35 406.10 646.32 403.31 643.73 C 398.52 639.46 391.69 638.38 386.99 633.93 C 383.74 631.05 381.98 626.10 383.74 621.97 Z" />
<path fill="#164c84" opacity="1.00" d=" M 76.98 615.00 C 84.32 615.00 91.65 615.00 98.99 615.00 L 99.04 615.91 C 96.84 616.03 93.01 615.69 93.11 618.92 C 92.85 628.26 93.07 637.61 93.00 646.95 C 93.09 648.78 92.79 650.76 93.60 652.48 C 97.80 653.32 102.36 653.30 106.55 652.40 C 111.77 650.58 112.26 644.52 114.93 640.58 C 114.33 645.39 113.45 650.17 112.95 655.00 C 100.97 655.00 88.98 654.99 77.00 655.00 L 77.00 654.10 C 79.15 653.92 82.97 654.26 82.89 651.11 C 83.07 640.37 83.08 629.61 82.89 618.88 C 82.96 615.72 79.15 616.07 77.00 615.90 L 76.98 615.00 Z" />
<path fill="#164c84" opacity="1.00" d=" M 254.38 615.08 C 259.17 614.89 263.98 615.04 268.77 615.00 C 275.02 623.15 281.56 631.06 287.89 639.13 C 288.08 633.44 287.97 627.74 288.00 622.05 C 287.85 620.25 288.20 617.92 286.52 616.73 C 285.09 616.09 283.49 616.11 281.98 615.86 L 282.00 615.00 C 286.67 615.00 291.34 615.00 296.02 615.00 L 295.99 615.87 C 294.01 616.07 292.08 616.58 290.35 617.58 C 289.56 630.50 290.24 643.47 289.97 656.42 C 280.67 645.55 271.95 634.16 263.11 622.91 C 262.95 631.96 262.91 641.03 263.10 650.09 C 263.18 653.06 266.44 654.25 268.99 654.14 L 269.05 655.00 C 264.36 654.99 259.68 654.99 255.00 655.00 L 255.00 654.15 C 257.51 654.18 260.83 653.18 260.89 650.15 C 261.12 640.75 260.97 631.34 260.97 621.94 C 261.02 618.28 257.26 616.36 254.38 615.08 Z" />
<path fill="#164c84" opacity="1.00" d=" M 298.00 615.00 C 306.64 615.30 315.39 614.20 323.92 615.98 C 327.97 617.07 331.92 619.30 334.26 622.87 C 339.40 630.40 339.11 641.20 333.38 648.34 C 329.07 653.25 322.29 654.81 316.02 655.01 C 310.01 655.02 304.00 654.98 297.99 655.00 L 298.00 654.10 C 300.13 653.92 303.90 654.27 303.90 651.17 C 304.13 641.11 303.94 631.05 304.00 620.99 C 303.85 619.46 304.25 617.32 302.57 616.52 C 301.12 615.92 299.51 616.07 297.99 615.90 L 298.00 615.00 M 314.00 616.94 C 313.99 627.30 314.01 637.65 314.00 648.01 C 314.10 649.52 313.79 651.19 314.49 652.61 C 317.72 653.61 321.85 652.95 323.80 649.94 C 327.17 645.01 327.07 638.73 326.98 633.00 C 326.91 627.98 325.99 622.37 322.09 618.83 C 319.98 616.68 316.73 617.17 314.00 616.94 Z" />
<path fill="#164c84" opacity="1.00" d=" M 340.99 615.00 C 351.99 615.00 363.00 615.00 374.00 615.00 C 373.96 618.80 374.09 622.61 373.92 626.42 C 372.10 624.49 372.43 621.37 370.36 619.62 C 366.85 616.06 361.48 617.20 357.00 617.00 C 357.00 622.71 356.99 628.41 357.01 634.12 C 358.85 633.77 361.16 634.15 362.52 632.57 C 364.44 630.53 364.73 627.63 365.12 625.00 L 366.00 624.98 C 366.00 631.66 366.00 638.34 366.00 645.02 L 365.12 645.00 C 364.74 642.35 364.43 639.46 362.42 637.48 C 361.11 635.86 358.83 636.21 357.01 635.87 C 357.12 641.46 356.67 647.08 357.40 652.64 C 362.09 653.09 367.63 653.83 371.48 650.45 C 374.22 648.26 375.04 644.70 376.68 641.75 C 376.52 646.21 375.61 650.58 375.06 655.00 C 363.71 655.00 352.35 654.99 341.00 655.00 L 340.99 654.10 C 343.15 653.92 346.97 654.26 346.89 651.10 C 347.09 640.37 347.05 629.62 346.91 618.89 C 346.94 615.75 343.16 616.04 341.00 615.90 L 340.99 615.00 Z" />
</g>
</svg>
